<?xml version="1.0" encoding="UTF-8" standalone="no"?>
<!-- Created with Inkscape (http://www.inkscape.org/) -->

<svg
   xmlns:dc="http://purl.org/dc/elements/1.1/"
   xmlns:cc="http://creativecommons.org/ns#"
   xmlns:rdf="http://www.w3.org/1999/02/22-rdf-syntax-ns#"
   xmlns:svg="http://www.w3.org/2000/svg"
   xmlns="http://www.w3.org/2000/svg"
   xmlns:sodipodi="http://sodipodi.sourceforge.net/DTD/sodipodi-0.dtd"
   xmlns:inkscape="http://www.inkscape.org/namespaces/inkscape"
   width="210mm"
   height="297mm"
   viewBox="0 0 744.09448819 1052.3622047"
   id="svg2"
   version="1.1"
   inkscape:version="0.91 r13725"
   sodipodi:docname="occhio.svg">
  <defs
     id="defs4" />
  <sodipodi:namedview
     id="base"
     pagecolor="#ffffff"
     bordercolor="#666666"
     borderopacity="1.0"
     inkscape:pageopacity="0.0"
     inkscape:pageshadow="2"
     inkscape:zoom="0.7"
     inkscape:cx="331.14286"
     inkscape:cy="427.47248"
     inkscape:document-units="px"
     inkscape:current-layer="layer1"
     showgrid="false"
     inkscape:object-nodes="false"
     inkscape:snap-center="true"
     inkscape:snap-object-midpoints="true"
     inkscape:snap-global="true"
     inkscape:window-width="1376"
     inkscape:window-height="937"
     inkscape:window-x="-8"
     inkscape:window-y="-8"
     inkscape:window-maximized="1" />
  <metadata
     id="metadata7">
    <rdf:RDF>
      <cc:Work
         rdf:about="">
        <dc:format>image/svg+xml</dc:format>
        <dc:type
           rdf:resource="http://purl.org/dc/dcmitype/StillImage" />
        <dc:title></dc:title>
      </cc:Work>
    </rdf:RDF>
  </metadata>
  <g
     inkscape:label="Livello 1"
     inkscape:groupmode="layer"
     id="layer1">
    <path
       style="fill:#ffffff;fill-rule:evenodd;stroke:#000000;stroke-width:9.9;stroke-linecap:round;stroke-linejoin:miter;stroke-opacity:1;stroke-miterlimit:4;stroke-dasharray:none;fill-opacity:1"
       d="M 330 543.79102 C 214.46234 545.03023 171.42773 625.21875 171.42773 625.21875 C 171.42773 625.21875 214.46234 705.40923 330 706.64844 C 445.53767 707.88766 500 625.21875 500 625.21875 C 500 625.21875 445.53767 542.5518 330 543.79102 z "
       id="path4136"
       inkscape:export-xdpi="90"
       inkscape:export-ydpi="90" />
    <path
       style="opacity:1;fill:#09619c;fill-opacity:1;fill-rule:nonzero;stroke:none;stroke-width:60;stroke-linecap:round;stroke-linejoin:round;stroke-miterlimit:4;stroke-dasharray:none;stroke-dashoffset:0;stroke-opacity:1"
       id="path4143"
       sodipodi:type="arc"
       sodipodi:cx="335.72952"
       sodipodi:cy="625.21973"
       sodipodi:rx="70.714287"
       sodipodi:ry="70.714287"
       sodipodi:start="2.7910607"
       sodipodi:end="2.7909386"
       sodipodi:open="true"
       d="m 269.31536,649.50283 a 70.714287,70.714287 0 0 1 42.12903,-90.69653 70.714287,70.714287 0 0 1 90.69781,42.12627 70.714287,70.714287 0 0 1 -42.12349,90.6991 70.714287,70.714287 0 0 1 -90.70039,-42.12073"
       inkscape:export-xdpi="90"
       inkscape:export-ydpi="90" />
    <g
       id="g4159"
       transform="translate(-144.28695,154.27867)"
       inkscape:export-xdpi="90"
       inkscape:export-ydpi="90">
      <path
         inkscape:transform-center-y="-0.076290235"
         inkscape:transform-center-x="-0.48483147"
         d="m 529.36261,514.70098 -38.6332,-37.56428 19.49783,52.39554 -22.4546,-48.98356 -0.74627,55.90082 -3.24339,-53.78735 -20.88958,51.85637 16.40586,-51.32685 -38.21163,40.80844 33.83941,-41.93439 -50.373,24.24911 46.70275,-26.87845 -55.73121,4.41479 53.25864,-8.19242 -53.56261,-16.01577 52.62165,11.60003 -44.16009,-34.2833 44.87781,29.82584 -28.79349,-47.92069 31.07297,44.0235 -9.53818,-55.08613 13.07156,52.27555 11.00531,-54.81187 -6.69523,53.46748 30.06248,-47.13497 -25.55781,47.43835 45.05954,-33.09223 -40.96865,35.0024 53.97106,-14.5802 -50.84645,17.83918 55.59349,5.90096 -53.85716,-1.73331 49.70772,25.58517 -49.59417,-21.07172 z"
         inkscape:randomized="0"
         inkscape:rounded="0"
         inkscape:flatsided="false"
         sodipodi:arg2="0.52924497"
         sodipodi:arg1="0.72664234"
         sodipodi:r2="12.285414"
         sodipodi:r1="65.877991"
         sodipodi:cy="470.93402"
         sodipodi:cx="480.12479"
         sodipodi:sides="17"
         id="path4153"
         style="opacity:1;fill:#00a1bf;fill-opacity:1;fill-rule:nonzero;stroke:none;stroke-width:8;stroke-linecap:round;stroke-linejoin:round;stroke-miterlimit:4;stroke-dasharray:none;stroke-dashoffset:0;stroke-opacity:1"
         sodipodi:type="star" />
      <path
         transform="matrix(0.9834715,0.181063,-0.181063,0.9834715,263.04076,-204.75982)"
         sodipodi:type="star"
         style="opacity:1;fill:#00a1bf;fill-opacity:1;fill-rule:nonzero;stroke:none;stroke-width:8;stroke-linecap:round;stroke-linejoin:round;stroke-miterlimit:4;stroke-dasharray:none;stroke-dashoffset:0;stroke-opacity:1"
         id="path4157"
         sodipodi:sides="17"
         sodipodi:cx="335.83908"
         sodipodi:cy="625.21973"
         sodipodi:r1="65.877991"
         sodipodi:r2="12.285414"
         sodipodi:arg1="0.72664234"
         sodipodi:arg2="0.52924497"
         inkscape:flatsided="false"
         inkscape:rounded="0"
         inkscape:randomized="0"
         d="m 385.07691,668.98668 -38.6332,-37.56427 19.49783,52.39554 -22.4546,-48.98356 -0.74627,55.90081 -3.24339,-53.78734 -20.88958,51.85637 16.40586,-51.32686 -38.21164,40.80845 33.83941,-41.93439 -50.373,24.2491 46.70276,-26.87844 -55.73121,4.41479 53.25864,-8.19243 -53.56261,-16.01576 52.62164,11.60003 -44.16008,-34.28331 44.87781,29.82584 -28.7935,-47.92069 31.07298,44.0235 -9.53819,-55.08612 13.07157,52.27554 11.00531,-54.81187 -6.69524,53.46749 30.06248,-47.13497 -25.55781,47.43835 45.05955,-33.09223 -40.96866,35.0024 53.97107,-14.58021 -50.84646,17.83919 55.5935,5.90096 -53.85717,-1.73332 49.70772,25.58517 -49.59416,-21.07172 z"
         inkscape:transform-center-x="0.46824011"
         inkscape:transform-center-y="0.092958216" />
    </g>
    <path
       style="opacity:1;fill:#000000;fill-opacity:1;fill-rule:nonzero;stroke:none;stroke-width:60;stroke-linecap:round;stroke-linejoin:round;stroke-miterlimit:4;stroke-dasharray:none;stroke-dashoffset:0;stroke-opacity:1"
       id="path4147"
       sodipodi:type="arc"
       sodipodi:cx="335.71387"
       sodipodi:cy="625.21973"
       sodipodi:rx="31.428572"
       sodipodi:ry="31.428572"
       sodipodi:start="2.7910607"
       sodipodi:end="2.7909386"
       sodipodi:open="true"
       d="m 306.19646,636.01222 a 31.428572,31.428572 0 0 1 18.72401,-40.30957 31.428572,31.428572 0 0 1 40.31014,18.72278 31.428572,31.428572 0 0 1 -18.72155,40.31071 31.428572,31.428572 0 0 1 -40.31128,-18.72032"
       inkscape:export-xdpi="90"
       inkscape:export-ydpi="90" />
    <path
       style="opacity:1;fill:#ffffff;fill-opacity:1;fill-rule:nonzero;stroke:none;stroke-width:8;stroke-linecap:round;stroke-linejoin:round;stroke-miterlimit:4;stroke-dasharray:none;stroke-dashoffset:0;stroke-opacity:1"
       id="path4149"
       sodipodi:type="arc"
       sodipodi:cx="315.00003"
       sodipodi:cy="568.79077"
       sodipodi:rx="13.571428"
       sodipodi:ry="13.571428"
       sodipodi:start="2.7910607"
       sodipodi:end="2.7909386"
       sodipodi:open="true"
       d="m 302.25388,573.45117 a 13.571428,13.571428 0 0 1 8.08537,-17.40641 13.571428,13.571428 0 0 1 17.40665,8.08484 13.571428,13.571428 0 0 1 -8.08431,17.4069 13.571428,13.571428 0 0 1 -17.40714,-8.08378"
       inkscape:export-xdpi="90"
       inkscape:export-ydpi="90" />
    <path
       d="m 291.00342,603.24132 a 8.5714283,8.5714283 0 0 1 5.10655,-10.99352 8.5714283,8.5714283 0 0 1 10.99367,5.10621 8.5714283,8.5714283 0 0 1 -5.10588,10.99383 8.5714283,8.5714283 0 0 1 -10.99398,-5.10554"
       sodipodi:open="true"
       sodipodi:end="2.7909386"
       sodipodi:start="2.7910607"
       sodipodi:ry="8.5714283"
       sodipodi:rx="8.5714283"
       sodipodi:cy="600.29791"
       sodipodi:cx="299.05362"
       sodipodi:type="arc"
       id="path4151"
       style="opacity:1;fill:#ffffff;fill-opacity:1;fill-rule:nonzero;stroke:none;stroke-width:8;stroke-linecap:round;stroke-linejoin:round;stroke-miterlimit:4;stroke-dasharray:none;stroke-dashoffset:0;stroke-opacity:1"
       inkscape:export-xdpi="90"
       inkscape:export-ydpi="90" />
  </g>
</svg>
